<svg width="1440" height="556" viewBox="0 0 1440 556" fill="none" xmlns="http://www.w3.org/2000/svg">
<g clip-path="url(#clip0_318_213)">
<mask id="mask0_318_213" style="mask-type:luminance" maskUnits="userSpaceOnUse" x="0" y="0" width="1440" height="556">
<rect width="1440" height="556" fill="white"/>
</mask>
<g mask="url(#mask0_318_213)">
<rect width="1440" height="576" fill="#F6D168" fill-opacity="0.4"/>
<circle cx="1256.27" cy="396.268" r="346.355" stroke="white" stroke-opacity="0.4" stroke-width="2"/>
<circle cx="1256.27" cy="394.553" r="298.326" stroke="white" stroke-opacity="0.2" stroke-width="2"/>
<circle cx="1257.13" cy="395.41" r="393.527" stroke="white" stroke-opacity="0.6" stroke-width="2"/>
<circle cx="1255.41" cy="395.411" r="436.411" stroke="white" stroke-opacity="0.8" stroke-width="2"/>
<path fill-rule="evenodd" clip-rule="evenodd" d="M143.177 643.837L140.581 645.827L137.986 647.859L135.388 649.932L132.784 652.045L130.17 654.194L127.541 656.377L124.895 658.592L122.228 660.837L119.538 663.111L108.492 672.46L105.648 674.857L102.767 677.276L99.8463 679.718L96.8854 682.181L93.8804 684.663L90.8302 687.164L87.7334 689.686L84.5871 692.225L81.39 694.778L78.1395 697.348L74.8341 699.93L71.4719 702.521L68.0518 705.123L64.5707 707.728L61.0281 710.335L57.4212 712.941L53.7493 715.541L50.0122 718.131L46.2063 720.706L42.3326 723.261L38.3904 725.792L34.3787 728.291L30.2969 730.752L26.1466 733.171L21.9273 735.54L17.6392 737.853L13.2854 740.104L8.8651 742.288L4.37994 744.396L-0.167083 746.423L-4.77313 748.362L-9.43772 750.207L-14.1564 751.952L-18.9274 753.592L-23.7454 755.119L-28.6086 756.527L-33.5113 757.814L-38.4515 758.972L-43.4226 759.997L-48.4212 760.884L-53.4428 761.629L-58.4818 762.227L-63.5335 762.675L-68.5932 762.972L-73.6539 763.111L-78.711 763.09L-83.7595 762.909L-88.7935 762.565L-93.8068 762.057L-98.7957 761.383L-103.753 760.544L-108.672 759.538L-113.551 758.365L-118.381 757.029L-123.159 755.527L-127.879 753.862L-132.535 752.035L-137.124 750.049L-141.641 747.908L-146.082 745.61L-150.44 743.162L-154.714 740.566L-158.899 737.825L-162.991 734.945L-166.988 731.928L-170.887 728.779L-174.683 725.503L-178.376 722.104L-181.962 718.587L-185.439 714.958L-188.806 711.22L-192.062 707.38L-195.203 703.44L-198.23 699.409L-201.141 695.288L-203.933 691.083L-206.608 686.801L-209.164 682.443L-211.601 678.017L-213.918 673.528L-216.115 668.978L-218.192 664.375L-220.15 659.721L-221.99 655.023L-223.712 650.284L-225.316 645.51L-226.804 640.705L-228.178 635.875L-229.441 631.022L-230.592 626.152L-231.634 621.27L-232.571 616.38L-233.404 611.486L-234.137 606.592L-234.772 601.702L-235.313 596.821L-235.765 591.951L-236.13 587.098L-236.411 582.263L-236.615 577.451L-236.743 572.663L-236.802 567.905L-236.795 563.177L-236.728 558.481L-236.604 553.821L-236.43 549.199L-236.207 544.616L-235.944 540.073L-235.646 535.572L-235.316 531.113L-234.959 526.698L-234.58 522.327L-234.186 518L-233.78 513.717L-233.368 509.477L-232.138 497.012L-231.746 492.938L-231.369 488.902L-231.012 484.903L-230.679 480.937L-230.371 477.004L-230.094 473.1L-229.85 469.225L-229.64 465.372L-229.468 461.542L-229.335 457.73L-229.242 453.933L-229.191 450.148L-229.182 446.372L-229.215 442.603L-229.29 438.837L-229.407 435.068L-229.563 431.297L-229.759 427.518L-229.992 423.729L-230.259 419.928L-230.558 416.111L-230.886 412.276L-231.238 408.419L-231.612 404.54L-232.003 400.637L-233.218 388.764L-233.619 384.75L-234.006 380.707L-234.37 376.634L-234.705 372.536L-235.002 368.411L-235.253 364.261L-235.447 360.091L-235.577 355.903L-235.634 351.701L-235.609 347.488L-235.492 343.27L-235.276 339.051L-234.954 334.838L-234.516 330.635L-233.956 326.449L-233.266 322.288L-232.44 318.157L-231.474 314.064L-230.362 310.016L-229.099 306.021L-227.682 302.085L-226.11 298.217L-224.379 294.423L-222.49 290.71L-220.444 287.084L-218.239 283.553L-215.881 280.122L-213.368 276.795L-210.707 273.58L-207.902 270.479L-204.955 267.498L-201.876 264.639L-198.668 261.904L-195.337 259.298L-191.894 256.82L-188.345 254.472L-184.699 252.252L-180.963 250.161L-177.148 248.198L-173.26 246.359L-169.311 244.641L-165.311 243.042L-161.268 241.556L-157.191 240.179L-153.09 238.904L-148.974 237.725L-144.853 236.634L-140.734 235.626L-136.626 234.69L-132.537 233.82L-128.474 233.007L-124.444 232.239L-120.453 231.511L-116.508 230.811L-108.768 229.458L-104.984 228.786L-101.26 228.105L-97.5985 227.406L-94.0022 226.679L-90.4711 225.916L-87.0057 225.111L-83.6033 224.254L-80.2662 223.34L-76.9901 222.361L-73.7718 221.313L-70.6096 220.19L-67.4999 218.99L-64.4385 217.707L-61.4192 216.339L-58.4383 214.889L-55.4908 213.351L-52.5707 211.728L-49.6712 210.021L-46.7874 208.23L-43.9138 206.359L-41.0449 204.411L-38.1743 202.388L-35.2962 200.294L-32.4065 198.133L-29.4982 195.91L-26.5669 193.632L-23.6079 191.303L-20.6166 188.931L-14.5187 184.086L-11.405 181.629L-8.24267 179.157L-5.02932 176.682L-1.76253 174.211L1.56111 171.752L4.94038 169.315L8.37883 166.909L11.8776 164.541L15.4338 162.22L19.0511 159.955L22.7267 157.752L26.4602 155.618L30.2512 153.561L34.0953 151.586L37.9945 149.697L41.9431 147.901L45.9404 146.201L49.9842 144.6L54.0716 143.104L58.1989 141.715L62.3641 140.437L66.5627 139.272L70.7935 138.223L75.0518 137.292L79.3341 136.481L83.6368 135.79L87.9586 135.22L92.2934 134.773L96.64 134.448L100.994 134.245L105.353 134.163L109.714 134.201L114.073 134.358L118.428 134.631L122.777 135.019L127.117 135.521L131.445 136.132L135.76 136.85L140.06 137.672L144.342 138.596L148.608 139.617L152.853 140.733L157.078 141.939L161.281 143.233L165.462 144.611L169.623 146.069L173.758 147.604L177.872 149.213L181.963 150.892L186.032 152.639L190.077 154.45L194.1 156.324L198.101 158.257L202.08 160.247L206.038 162.294L209.973 164.393L213.888 166.546L217.782 168.75L221.653 171.004L225.503 173.308L229.331 175.664L233.137 178.068L236.919 180.522L240.676 183.025L244.41 185.579L248.119 188.181L251.803 190.833L255.461 193.533L259.094 196.281L262.701 199.077L266.283 201.919L269.837 204.807L273.366 207.744L276.867 210.726L280.341 213.754L283.788 216.83L287.204 219.952L290.592 223.119L293.949 226.334L297.275 229.598L300.568 232.907L303.825 236.265L307.049 239.672L310.234 243.126L313.381 246.629L316.488 250.182L319.553 253.784L322.574 257.435L325.551 261.135L328.481 264.884L331.363 268.683L334.197 272.529L336.979 276.424L339.707 280.368L342.38 284.361L344.995 288.401L347.548 292.489L350.038 296.627L352.459 300.812L354.81 305.045L357.086 309.325L359.284 313.652L361.4 318.026L363.43 322.445L365.371 326.908L367.217 331.414L368.966 335.962L370.614 340.551L372.156 345.178L373.59 349.841L374.912 354.539L376.117 359.268L377.205 364.027L378.171 368.812L379.013 373.62L379.729 378.449L380.317 383.296L380.774 388.155L381.101 393.026L381.295 397.903L381.356 402.783L381.284 407.663L381.079 412.537L380.742 417.403L380.273 422.259L379.673 427.098L378.944 431.918L378.089 436.715L377.108 441.486L376.005 446.227L374.783 450.935L373.445 455.608L371.993 460.241L370.432 464.834L368.766 469.381L366.997 473.882L365.132 478.335L363.173 482.737L361.124 487.086L358.989 491.382L356.77 495.622L354.469 499.803L352.09 503.926L349.632 507.987L347.097 511.986L344.488 515.921L341.805 519.789L339.049 523.59L336.218 527.319L333.318 530.978L330.345 534.562L327.302 538.07L324.191 541.501L321.011 544.852L317.764 548.122L314.45 551.309L311.075 554.409L307.638 557.424L304.141 560.353L300.589 563.191L296.984 565.942L293.33 568.602L289.632 571.172L285.892 573.654L282.119 576.048L278.315 578.354L274.489 580.577L270.644 582.717L266.787 584.776L262.924 586.76L259.057 588.669L255.196 590.508L251.344 592.28L247.505 593.988L243.683 595.638L239.886 597.232L236.115 598.777L232.376 600.277L228.67 601.734L225.004 603.156L221.377 604.546L210.768 608.578L207.329 609.892L203.939 611.199L200.603 612.505L197.317 613.812L194.085 615.128L190.903 616.455L187.775 617.797L184.696 619.158L181.666 620.544L178.685 621.957L175.751 623.4L172.861 624.875L170.013 626.387L167.204 627.938L164.432 629.528L161.693 631.16L158.984 632.835L156.303 634.555L153.645 636.321L151.007 638.132L148.386 639.988L145.777 641.89L143.177 643.837Z" fill="white" fill-opacity="0.4"/>
<path fill-rule="evenodd" clip-rule="evenodd" d="M723.825 160.112L726.72 161.633L729.654 163.137L732.625 164.625L735.635 166.103L738.683 167.575L741.767 169.045L744.888 170.519L748.045 171.997L751.237 173.486L764.357 179.591L767.726 181.167L771.131 182.768L774.573 184.395L778.05 186.05L781.564 187.736L785.114 189.456L788.703 191.209L792.327 193L795.986 194.831L799.682 196.704L803.413 198.621L807.175 200.586L810.971 202.6L814.796 204.667L818.649 206.789L822.528 208.97L826.428 211.213L830.347 213.519L834.281 215.894L838.225 218.338L842.176 220.855L846.128 223.449L850.074 226.121L854.011 228.875L857.931 231.711L861.83 234.633L865.7 237.641L869.536 240.738L873.332 243.925L877.079 247.202L880.771 250.57L884.402 254.03L887.966 257.582L891.456 261.225L894.863 264.958L898.182 268.782L901.406 272.692L904.53 276.691L907.546 280.774L910.447 284.939L913.23 289.185L915.887 293.508L918.413 297.906L920.804 302.375L923.053 306.911L925.156 311.51L927.109 316.169L928.909 320.883L930.55 325.647L932.032 330.458L933.349 335.31L934.499 340.198L935.482 345.118L936.294 350.064L936.936 355.031L937.404 360.014L937.699 365.007L937.821 370.006L937.772 375.005L937.548 379.999L937.155 384.983L936.591 389.951L935.858 394.9L934.96 399.823L933.899 404.717L932.676 409.577L931.294 414.397L929.757 419.175L928.07 423.905L926.233 428.584L924.253 433.209L922.133 437.775L919.874 442.28L917.485 446.718L914.964 451.089L912.319 455.388L909.553 459.612L906.67 463.76L903.675 467.829L900.571 471.816L897.363 475.719L894.055 479.535L890.652 483.264L887.159 486.906L883.579 490.456L879.919 493.915L876.181 497.281L872.373 500.555L868.497 503.737L864.559 506.825L860.564 509.819L856.519 512.72L852.425 515.53L848.29 518.248L844.117 520.876L839.914 523.415L835.683 525.867L831.431 528.234L827.16 530.518L822.877 532.722L818.584 534.846L814.289 536.896L809.994 538.873L805.704 540.781L801.422 542.624L797.153 544.404L792.899 546.125L788.665 547.792L784.453 549.409L780.268 550.98L776.11 552.508L771.983 553.997L767.89 555.455L763.832 556.883L759.81 558.287L747.979 562.4L744.116 563.753L740.295 565.104L736.514 566.458L732.774 567.819L729.076 569.189L725.415 570.575L721.795 571.979L718.21 573.405L714.66 574.855L711.144 576.334L707.659 577.842L704.201 579.383L700.77 580.959L697.362 582.569L693.975 584.217L690.603 585.905L687.245 587.628L683.897 589.392L680.555 591.192L677.216 593.029L673.877 594.902L670.533 596.809L667.18 598.746L663.816 600.712L660.436 602.704L650.168 608.788L646.692 610.836L643.184 612.883L639.64 614.922L636.06 616.945L632.441 618.945L628.779 620.913L625.075 622.839L621.328 624.713L617.538 626.528L613.703 628.272L609.825 629.936L605.904 631.51L601.944 632.985L597.945 634.35L593.911 635.598L589.844 636.717L585.747 637.7L581.627 638.54L577.486 639.228L573.329 639.757L569.162 640.123L564.991 640.318L560.821 640.339L556.658 640.181L552.508 639.845L548.378 639.325L544.274 638.623L540.2 637.737L536.165 636.671L532.173 635.425L528.231 634L524.344 632.404L520.516 630.639L516.753 628.71L513.06 626.623L509.439 624.387L505.895 622.009L502.43 619.493L499.047 616.854L495.747 614.096L492.531 611.232L489.401 608.272L486.356 605.225L483.396 602.101L480.518 598.914L477.721 595.672L475.003 592.389L472.36 589.073L469.787 585.736L467.282 582.39L464.84 579.042L462.452 575.706L460.117 572.388L457.826 569.101L453.351 562.642L451.155 559.488L448.974 556.394L446.803 553.364L444.635 550.404L442.461 547.518L440.276 544.711L438.072 541.981L435.842 539.335L433.579 536.772L431.278 534.29L428.932 531.891L426.538 529.572L424.089 527.33L421.581 525.163L419.014 523.066L416.382 521.035L413.684 519.065L410.918 517.149L408.083 515.283L405.179 513.459L402.207 511.672L399.166 509.915L396.058 508.181L392.884 506.464L389.646 504.756L386.348 503.051L382.993 501.342L379.585 499.621L372.629 496.118L369.092 494.323L365.522 492.489L361.927 490.61L358.314 488.681L354.688 486.695L351.058 484.65L347.431 482.538L343.814 480.356L340.216 478.101L336.641 475.768L333.1 473.355L329.597 470.861L326.139 468.283L322.734 465.622L319.384 462.874L316.097 460.043L312.877 457.128L309.728 454.128L306.655 451.046L303.663 447.881L300.755 444.637L297.937 441.314L295.21 437.913L292.578 434.438L290.045 430.891L287.613 427.276L285.283 423.591L283.059 419.844L280.941 416.034L278.93 412.167L277.027 408.245L275.232 404.27L273.546 400.248L271.967 396.179L270.495 392.068L269.13 387.919L267.869 383.734L266.711 379.515L265.654 375.267L264.696 370.992L263.834 366.692L263.066 362.37L262.389 358.029L261.8 353.67L261.296 349.297L260.875 344.909L260.533 340.511L260.268 336.101L260.076 331.683L259.956 327.257L259.903 322.825L259.916 318.387L259.992 313.944L260.13 309.498L260.328 305.046L260.583 300.593L260.895 296.136L261.262 291.677L261.685 287.217L262.161 282.756L262.693 278.293L263.279 273.83L263.921 269.367L264.617 264.906L265.369 260.446L266.176 255.987L267.037 251.531L267.953 247.077L268.924 242.626L269.949 238.18L271.026 233.736L272.158 229.298L273.344 224.863L274.582 220.433L275.873 216.01L277.219 211.591L278.62 207.18L280.074 202.775L281.585 198.38L283.152 193.992L284.775 189.614L286.457 185.249L288.197 180.894L289.997 176.553L291.857 172.227L293.778 167.916L295.762 163.623L297.809 159.349L299.919 155.095L302.094 150.862L304.333 146.652L306.636 142.467L309.004 138.308L311.44 134.176L313.943 130.075L316.514 126.007L319.154 121.974L321.866 117.978L324.65 114.024L327.506 110.115L330.436 106.254L333.442 102.443L336.525 98.6875L339.684 94.9909L342.922 91.3572L346.238 87.7909L349.633 84.2955L353.107 80.8751L356.661 77.5336L360.292 74.2761L364.002 71.1059L367.789 68.0276L371.653 65.0439L375.591 62.1599L379.603 59.3786L383.686 56.7029L387.84 54.1363L392.059 51.6824L396.344 49.3428L400.689 47.1211L405.094 45.0182L409.553 43.0366L414.064 41.1778L418.623 39.4431L423.228 37.8319L427.872 36.3463L432.553 34.9859L437.266 33.7507L442.009 32.6391L446.775 31.6515L451.561 30.7863L456.364 30.0412L461.18 29.4153L466.003 28.9057L470.83 28.5112L475.658 28.2279L480.483 28.0537L485.3 27.9856L490.108 28.0208L494.903 28.1573L499.682 28.3931L504.443 28.7275L509.184 29.158L513.902 29.6855L518.595 30.3088L523.261 31.027L527.899 31.8398L532.504 32.7475L537.077 33.7526L541.615 34.851L546.115 36.0457L550.577 37.3364L554.996 38.7215L559.373 40.2026L563.703 41.779L567.985 43.4495L572.216 45.2131L576.395 47.0681L580.52 49.0139L584.587 51.0478L588.596 53.1663L592.543 55.3675L596.428 57.6466L600.25 60.0001L604.005 62.4216L607.694 64.9066L611.317 67.4478L614.872 70.0404L618.36 72.678L621.781 75.3527L625.136 78.0617L628.425 80.7954L631.65 83.5491L634.81 86.3177L637.912 89.0941L640.951 91.8721L643.936 94.6479L646.865 97.4124L649.743 100.165L652.571 102.897L655.354 105.606L663.465 113.545L666.1 116.117L668.709 118.645L671.294 121.126L673.859 123.56L676.409 125.943L678.949 128.274L681.479 130.551L684.006 132.775L686.535 134.944L689.068 137.057L691.609 139.115L694.16 141.12L696.728 143.071L699.313 144.971L701.92 146.82L704.55 148.622L707.207 150.378L709.893 152.09L712.611 153.762L715.361 155.397L718.146 156.998L720.967 158.569L723.825 160.112Z" fill="#FDDA6D" fill-opacity="0.2"/>
<rect x="738" y="277.736" width="660.682" height="660.682" rx="100" transform="rotate(-51.178 738 277.736)" fill="white" fill-opacity="0.4"/>
<rect x="693" y="280.736" width="660.682" height="660.682" rx="100" transform="rotate(-51.178 693 280.736)" fill="#FDDA6D" fill-opacity="0.2"/>
</g>
<mask id="mask1_318_213" style="mask-type:luminance" maskUnits="userSpaceOnUse" x="880" y="-53" width="609" height="609">
<path d="M1489 251.5C1489 419.671 1352.67 556 1184.5 556C1016.33 556 880 419.671 880 251.5C880 83.3293 1016.33 -53 1184.5 -53C1352.67 -53 1489 83.3293 1489 251.5Z" fill="white"/>
</mask>
<g mask="url(#mask1_318_213)">
</g>
<mask id="mask2_318_213" style="mask-type:luminance" maskUnits="userSpaceOnUse" x="821" y="-123" width="693" height="693">
<rect x="781" y="265.182" width="549.585" height="549.585" rx="100" transform="rotate(-51.178 781 265.182)" fill="white"/>
</mask>
<g mask="url(#mask2_318_213)">
<circle cx="1187" cy="354.001" r="211" fill="#FDDA6D"/>
<path d="M1804 250.5C1804 418.671 1667.67 555 1499.5 555C1331.33 555 1195 418.671 1195 250.5C1195 82.3293 1331.33 -54 1499.5 -54C1667.67 -54 1804 82.3293 1804 250.5Z" fill="white" fill-opacity="0.4"/>
<path d="M1158 251.5C1158 419.671 1021.67 556 853.5 556C685.329 556 549 419.671 549 251.5C549 83.3293 685.329 -53 853.5 -53C1021.67 -53 1158 83.3293 1158 251.5Z" fill="white" fill-opacity="0.4"/>
</g>
</g>
<defs>
<clipPath id="clip0_318_213">
<rect width="1440" height="556" fill="white"/>
</clipPath>
</defs>
</svg>
