<svg width="150" height="50" viewBox="0 0 150 50" fill="none" xmlns="http://www.w3.org/2000/svg">
<rect width="150" height="50" rx="4" fill="black"/>
<path d="M24.8592 25.0034L9.04716 40.2369L8.56587 40.7052C8.26665 40.3121 8.065 39.8438 8.0195 39.3235C8.0065 39.2311 8 39.1385 8 39.046V10.9549C8 10.3249 8.21465 9.75831 8.56587 9.29565L24.8592 25.0034Z" fill="#3A9BC8"/>
<path d="M31.9684 18.1469L24.8592 25.0035L8.56592 9.29573C9.48951 8.09331 11.3758 7.57886 12.9759 8.39977L31.9684 18.1469Z" fill="#9BCD83"/>
<path d="M41.998 25.0844C41.972 26.0442 41.4192 27.0038 40.3459 27.553L31.9683 31.8542L24.8591 25.0035L31.9683 18.147L37.2369 20.8527L40.3459 22.4482C41.4842 23.0322 42.0371 24.0612 41.998 25.0844Z" fill="#EEB84C"/>
<path d="M8.56714 40.7045C9.49117 41.9076 11.3762 42.4203 12.9733 41.6008L31.9657 31.8545L24.8564 25.0007L8.56714 40.7045Z" fill="#B43F70"/>
<path opacity="0.2" d="M41.9242 24.3656C41.7409 23.6008 41.2157 22.8943 40.346 22.4481L37.2369 20.8526L31.9684 18.1469L12.9758 8.39977C11.3757 7.57886 9.48946 8.09331 8.56587 9.29573C8.21465 9.75838 8 10.325 8 10.955V27.1395C10.7405 27.3463 13.5456 27.4547 16.4014 27.4547C19.9864 27.4547 23.4878 27.2791 26.8848 26.9563C32.2049 26.4509 37.2547 25.5678 41.9242 24.3656Z" fill="white"/>
<path d="M52.1816 13.8672V16.582C52.0807 16.7155 51.9229 16.862 51.708 17.0215C51.4964 17.1777 51.2148 17.3128 50.8633 17.4268C50.5117 17.5407 50.0739 17.5977 49.5498 17.5977C49.1038 17.5977 48.6953 17.5228 48.3242 17.373C47.9531 17.2201 47.6325 16.9971 47.3623 16.7041C47.0954 16.4111 46.8887 16.0547 46.7422 15.6348C46.5957 15.2116 46.5225 14.7298 46.5225 14.1895V13.6963C46.5225 13.1592 46.5892 12.6807 46.7227 12.2607C46.8594 11.8376 47.0547 11.4795 47.3086 11.1865C47.5625 10.8936 47.8685 10.6722 48.2266 10.5225C48.5879 10.3695 48.9964 10.293 49.4521 10.293C50.0348 10.293 50.5166 10.3906 50.8975 10.5859C51.2816 10.778 51.5778 11.0449 51.7861 11.3867C51.9945 11.7285 52.1263 12.1191 52.1816 12.5586H50.9805C50.9414 12.3112 50.8649 12.0898 50.751 11.8945C50.6403 11.6992 50.4808 11.5462 50.2725 11.4355C50.0674 11.3216 49.8005 11.2646 49.4717 11.2646C49.1885 11.2646 48.9395 11.3184 48.7246 11.4258C48.5098 11.5332 48.3307 11.6911 48.1875 11.8994C48.0475 12.1077 47.9417 12.3617 47.8701 12.6611C47.7985 12.9606 47.7627 13.3024 47.7627 13.6865V14.1895C47.7627 14.5801 47.8034 14.9268 47.8848 15.2295C47.9694 15.5322 48.0898 15.7878 48.2461 15.9961C48.4056 16.2044 48.5993 16.3623 48.8271 16.4697C49.055 16.5739 49.3122 16.626 49.5986 16.626C49.8786 16.626 50.1081 16.6032 50.2871 16.5576C50.4661 16.5088 50.6077 16.4518 50.7119 16.3867C50.8193 16.3184 50.9023 16.2533 50.9609 16.1914V14.7803H49.4814V13.8672H52.1816ZM58.1924 16.5283V17.5H54.418V16.5283H58.1924ZM54.7646 10.3906V17.5H53.5391V10.3906H54.7646ZM57.6992 13.3594V14.3164H54.418V13.3594H57.6992ZM58.168 10.3906V11.3672H54.418V10.3906H58.168ZM62.2158 10.3906V17.5H61V10.3906H62.2158ZM64.4473 10.3906V11.3672H58.7881V10.3906H64.4473ZM68.9492 10.3906V17.5H67.7236V10.3906H68.9492ZM73.251 10.3906V17.5H72.0352V10.3906H73.251ZM75.4824 10.3906V11.3672H69.8232V10.3906H75.4824ZM84.3447 13.75V14.1406C84.3447 14.6777 84.2747 15.1595 84.1348 15.5859C83.9948 16.0124 83.7946 16.3753 83.5342 16.6748C83.277 16.9743 82.9678 17.2038 82.6064 17.3633C82.2451 17.5195 81.8447 17.5977 81.4053 17.5977C80.9691 17.5977 80.5703 17.5195 80.209 17.3633C79.8509 17.2038 79.54 16.9743 79.2764 16.6748C79.0127 16.3753 78.8076 16.0124 78.6611 15.5859C78.5179 15.1595 78.4463 14.6777 78.4463 14.1406V13.75C78.4463 13.2129 78.5179 12.7327 78.6611 12.3096C78.8044 11.8831 79.0062 11.5202 79.2666 11.2207C79.5303 10.918 79.8411 10.6885 80.1992 10.5322C80.5605 10.3727 80.9593 10.293 81.3955 10.293C81.835 10.293 82.2354 10.3727 82.5967 10.5322C82.958 10.6885 83.2689 10.918 83.5293 11.2207C83.7897 11.5202 83.9899 11.8831 84.1299 12.3096C84.2731 12.7327 84.3447 13.2129 84.3447 13.75ZM83.1191 14.1406V13.7402C83.1191 13.3431 83.0801 12.9932 83.002 12.6904C82.9271 12.3844 82.8148 12.1289 82.665 11.9238C82.5186 11.7155 82.3379 11.5592 82.123 11.4551C81.9082 11.3477 81.6657 11.2939 81.3955 11.2939C81.1253 11.2939 80.8844 11.3477 80.6729 11.4551C80.4613 11.5592 80.2806 11.7155 80.1309 11.9238C79.9844 12.1289 79.8721 12.3844 79.7939 12.6904C79.7158 12.9932 79.6768 13.3431 79.6768 13.7402V14.1406C79.6768 14.5378 79.7158 14.8893 79.7939 15.1953C79.8721 15.5013 79.986 15.7601 80.1357 15.9717C80.2887 16.18 80.471 16.3379 80.6826 16.4453C80.8942 16.5495 81.1351 16.6016 81.4053 16.6016C81.6787 16.6016 81.9212 16.5495 82.1328 16.4453C82.3444 16.3379 82.5234 16.18 82.6699 15.9717C82.8164 15.7601 82.9271 15.5013 83.002 15.1953C83.0801 14.8893 83.1191 14.5378 83.1191 14.1406ZM91.21 10.3906V17.5H89.9844L86.7959 12.4072V17.5H85.5703V10.3906H86.7959L89.9941 15.4932V10.3906H91.21Z" fill="white"/>
<path d="M57.2061 30.8818V35.8652C57.0186 36.1055 56.7227 36.3662 56.3184 36.6475C55.9199 36.9287 55.3984 37.1719 54.7539 37.377C54.1094 37.5762 53.3184 37.6758 52.3809 37.6758C51.5664 37.6758 50.8223 37.541 50.1484 37.2715C49.4746 36.9961 48.8945 36.5947 48.4082 36.0674C47.9219 35.54 47.5469 34.8955 47.2832 34.1338C47.0195 33.3721 46.8877 32.502 46.8877 31.5234V30.6797C46.8877 29.7012 47.0107 28.8311 47.2568 28.0693C47.5088 27.3076 47.8662 26.6631 48.3291 26.1357C48.7979 25.6084 49.3574 25.207 50.0078 24.9316C50.6641 24.6562 51.3965 24.5186 52.2051 24.5186C53.2891 24.5186 54.1797 24.6973 54.877 25.0547C55.5801 25.4121 56.1191 25.9043 56.4941 26.5312C56.8691 27.1523 57.1035 27.8672 57.1973 28.6758H54.8418C54.7773 28.2305 54.6484 27.8408 54.4551 27.5068C54.2617 27.167 53.9863 26.9033 53.6289 26.7158C53.2773 26.5225 52.8203 26.4258 52.2578 26.4258C51.7832 26.4258 51.3643 26.5195 51.001 26.707C50.6377 26.8945 50.333 27.167 50.0869 27.5244C49.8408 27.8818 49.6533 28.3242 49.5244 28.8516C49.4014 29.3789 49.3398 29.9824 49.3398 30.6621V31.5234C49.3398 32.209 49.4102 32.8184 49.5508 33.3516C49.6914 33.8789 49.8936 34.3242 50.1572 34.6875C50.4268 35.0449 50.7578 35.3174 51.1504 35.5049C51.5488 35.6865 52 35.7773 52.5039 35.7773C52.9609 35.7773 53.3389 35.7393 53.6377 35.6631C53.9424 35.5811 54.1855 35.4844 54.3672 35.373C54.5488 35.2617 54.6895 35.1533 54.7891 35.0479V32.6484H52.249V30.8818H57.2061ZM58.9023 32.8418V32.6572C58.9023 31.96 59.002 31.3184 59.2012 30.7324C59.4004 30.1406 59.6904 29.6279 60.0713 29.1943C60.4521 28.7607 60.918 28.4238 61.4688 28.1836C62.0195 27.9375 62.6465 27.8145 63.3496 27.8145C64.0645 27.8145 64.6973 27.9375 65.248 28.1836C65.8047 28.4238 66.2734 28.7607 66.6543 29.1943C67.0352 29.6279 67.3252 30.1406 67.5244 30.7324C67.7236 31.3184 67.8232 31.96 67.8232 32.6572V32.8418C67.8232 33.5332 67.7236 34.1748 67.5244 34.7666C67.3252 35.3525 67.0352 35.8652 66.6543 36.3047C66.2734 36.7383 65.8076 37.0752 65.2568 37.3154C64.7061 37.5557 64.0762 37.6758 63.3672 37.6758C62.6641 37.6758 62.0342 37.5557 61.4775 37.3154C60.9209 37.0752 60.4521 36.7383 60.0713 36.3047C59.6904 35.8652 59.4004 35.3525 59.2012 34.7666C59.002 34.1748 58.9023 33.5332 58.9023 32.8418ZM61.2227 32.6572V32.8418C61.2227 33.2578 61.2637 33.6475 61.3457 34.0107C61.4277 34.374 61.5537 34.6934 61.7236 34.9688C61.8936 35.2441 62.1133 35.4609 62.3828 35.6191C62.6582 35.7715 62.9863 35.8477 63.3672 35.8477C63.7422 35.8477 64.0645 35.7715 64.334 35.6191C64.6035 35.4609 64.8232 35.2441 64.9932 34.9688C65.1689 34.6934 65.2979 34.374 65.3799 34.0107C65.4619 33.6475 65.5029 33.2578 65.5029 32.8418V32.6572C65.5029 32.2471 65.4619 31.8633 65.3799 31.5059C65.2979 31.1426 65.1689 30.8232 64.9932 30.5479C64.8232 30.2666 64.6006 30.0469 64.3252 29.8887C64.0557 29.7246 63.7305 29.6426 63.3496 29.6426C62.9746 29.6426 62.6523 29.7246 62.3828 29.8887C62.1133 30.0469 61.8936 30.2666 61.7236 30.5479C61.5537 30.8232 61.4277 31.1426 61.3457 31.5059C61.2637 31.8633 61.2227 32.2471 61.2227 32.6572ZM69.0977 32.8418V32.6572C69.0977 31.96 69.1973 31.3184 69.3965 30.7324C69.5957 30.1406 69.8857 29.6279 70.2666 29.1943C70.6475 28.7607 71.1133 28.4238 71.6641 28.1836C72.2148 27.9375 72.8418 27.8145 73.5449 27.8145C74.2598 27.8145 74.8926 27.9375 75.4434 28.1836C76 28.4238 76.4688 28.7607 76.8496 29.1943C77.2305 29.6279 77.5205 30.1406 77.7197 30.7324C77.9189 31.3184 78.0186 31.96 78.0186 32.6572V32.8418C78.0186 33.5332 77.9189 34.1748 77.7197 34.7666C77.5205 35.3525 77.2305 35.8652 76.8496 36.3047C76.4688 36.7383 76.0029 37.0752 75.4521 37.3154C74.9014 37.5557 74.2715 37.6758 73.5625 37.6758C72.8594 37.6758 72.2295 37.5557 71.6729 37.3154C71.1162 37.0752 70.6475 36.7383 70.2666 36.3047C69.8857 35.8652 69.5957 35.3525 69.3965 34.7666C69.1973 34.1748 69.0977 33.5332 69.0977 32.8418ZM71.418 32.6572V32.8418C71.418 33.2578 71.459 33.6475 71.541 34.0107C71.623 34.374 71.749 34.6934 71.9189 34.9688C72.0889 35.2441 72.3086 35.4609 72.5781 35.6191C72.8535 35.7715 73.1816 35.8477 73.5625 35.8477C73.9375 35.8477 74.2598 35.7715 74.5293 35.6191C74.7988 35.4609 75.0186 35.2441 75.1885 34.9688C75.3643 34.6934 75.4932 34.374 75.5752 34.0107C75.6572 33.6475 75.6982 33.2578 75.6982 32.8418V32.6572C75.6982 32.2471 75.6572 31.8633 75.5752 31.5059C75.4932 31.1426 75.3643 30.8232 75.1885 30.5479C75.0186 30.2666 74.7959 30.0469 74.5205 29.8887C74.251 29.7246 73.9258 29.6426 73.5449 29.6426C73.1699 29.6426 72.8477 29.7246 72.5781 29.8887C72.3086 30.0469 72.0889 30.2666 71.9189 30.5479C71.749 30.8232 71.623 31.1426 71.541 31.5059C71.459 31.8633 71.418 32.2471 71.418 32.6572ZM85.7529 27.9902H87.8623V37.21C87.8623 38.0713 87.6748 38.8008 87.2998 39.3984C86.9307 40.002 86.4121 40.459 85.7441 40.7695C85.0762 41.0859 84.2998 41.2441 83.415 41.2441C83.0342 41.2441 82.6211 41.1914 82.1758 41.0859C81.7363 40.9805 81.3115 40.8135 80.9014 40.585C80.4971 40.3623 80.1602 40.0723 79.8906 39.7148L80.9365 38.3438C81.2529 38.7129 81.6104 38.9912 82.0088 39.1787C82.4072 39.3721 82.8379 39.4688 83.3008 39.4688C83.7695 39.4688 84.168 39.3809 84.4961 39.2051C84.8301 39.0352 85.085 38.7832 85.2607 38.4492C85.4424 38.1211 85.5332 37.7168 85.5332 37.2363V30.1611L85.7529 27.9902ZM79.3281 32.8594V32.6748C79.3281 31.9482 79.416 31.2891 79.5918 30.6973C79.7676 30.0996 80.0195 29.5869 80.3477 29.1592C80.6816 28.7314 81.083 28.4004 81.5518 28.166C82.0264 27.9316 82.5596 27.8145 83.1514 27.8145C83.7783 27.8145 84.3057 27.9287 84.7334 28.1572C85.167 28.3857 85.5244 28.7109 85.8057 29.1328C86.0928 29.5547 86.3154 30.0557 86.4736 30.6357C86.6377 31.21 86.7637 31.8428 86.8516 32.5342V33.0352C86.7695 33.709 86.6377 34.3271 86.4561 34.8896C86.2803 35.4521 86.0459 35.9443 85.7529 36.3662C85.46 36.7822 85.0967 37.1045 84.6631 37.333C84.2295 37.5615 83.7197 37.6758 83.1338 37.6758C82.5479 37.6758 82.0205 37.5557 81.5518 37.3154C81.083 37.0752 80.6816 36.7383 80.3477 36.3047C80.0195 35.8711 79.7676 35.3613 79.5918 34.7754C79.416 34.1895 79.3281 33.5508 79.3281 32.8594ZM81.6484 32.6748V32.8594C81.6484 33.2695 81.6895 33.6533 81.7715 34.0107C81.8535 34.3682 81.9795 34.6846 82.1494 34.96C82.3193 35.2295 82.5332 35.4404 82.791 35.5928C83.0488 35.7451 83.3564 35.8213 83.7139 35.8213C84.1943 35.8213 84.5869 35.7217 84.8916 35.5225C85.2021 35.3174 85.4365 35.0391 85.5947 34.6875C85.7588 34.3301 85.8643 33.9287 85.9111 33.4834V32.1035C85.8818 31.752 85.8174 31.4268 85.7178 31.1279C85.624 30.8291 85.4922 30.5713 85.3223 30.3545C85.1523 30.1377 84.9355 29.9678 84.6719 29.8447C84.4082 29.7217 84.0947 29.6602 83.7314 29.6602C83.3799 29.6602 83.0723 29.7393 82.8086 29.8975C82.5449 30.0498 82.3281 30.2637 82.1582 30.5391C81.9883 30.8145 81.8594 31.1338 81.7715 31.4971C81.6895 31.8604 81.6484 32.2529 81.6484 32.6748ZM92.415 24V37.5H90.0859V24H92.415ZM98.9014 37.6758C98.1807 37.6758 97.5332 37.5586 96.959 37.3242C96.3848 37.0898 95.8955 36.7646 95.4912 36.3486C95.0928 35.9268 94.7852 35.4375 94.5684 34.8809C94.3574 34.3184 94.252 33.7148 94.252 33.0703V32.7188C94.252 31.9863 94.3574 31.3213 94.5684 30.7236C94.7793 30.1201 95.0781 29.6016 95.4648 29.168C95.8516 28.7344 96.3145 28.4004 96.8535 28.166C97.3926 27.9316 97.9873 27.8145 98.6377 27.8145C99.3115 27.8145 99.9062 27.9287 100.422 28.1572C100.938 28.3799 101.368 28.6963 101.714 29.1064C102.06 29.5166 102.32 30.0088 102.496 30.583C102.672 31.1514 102.76 31.7812 102.76 32.4727V33.4482H95.3066V31.8486H100.475V31.6729C100.463 31.3037 100.393 30.9668 100.264 30.6621C100.135 30.3516 99.9355 30.1055 99.666 29.9238C99.3965 29.7363 99.0479 29.6426 98.6201 29.6426C98.2744 29.6426 97.9727 29.7188 97.7148 29.8711C97.4629 30.0176 97.252 30.2285 97.082 30.5039C96.918 30.7734 96.7949 31.0957 96.7129 31.4707C96.6309 31.8457 96.5898 32.2617 96.5898 32.7188V33.0703C96.5898 33.4688 96.6426 33.8379 96.748 34.1777C96.8594 34.5176 97.0205 34.8135 97.2314 35.0654C97.4482 35.3115 97.7061 35.5049 98.0049 35.6455C98.3096 35.7803 98.6553 35.8477 99.042 35.8477C99.5283 35.8477 99.9678 35.7539 100.36 35.5664C100.759 35.373 101.104 35.0889 101.397 34.7139L102.566 35.9268C102.367 36.2197 102.098 36.501 101.758 36.7705C101.424 37.04 101.02 37.2598 100.545 37.4297C100.07 37.5938 99.5225 37.6758 98.9014 37.6758ZM113.896 32.833H110.6V30.9346H113.896C114.435 30.9346 114.871 30.8467 115.205 30.6709C115.545 30.4893 115.794 30.2432 115.952 29.9326C116.11 29.6162 116.189 29.2559 116.189 28.8516C116.189 28.459 116.11 28.0928 115.952 27.7529C115.794 27.4131 115.545 27.1377 115.205 26.9268C114.871 26.7158 114.435 26.6104 113.896 26.6104H111.391V37.5H108.974V24.7031H113.896C114.892 24.7031 115.741 24.8818 116.444 25.2393C117.153 25.5908 117.692 26.0801 118.062 26.707C118.437 27.3281 118.624 28.0371 118.624 28.834C118.624 29.6602 118.437 30.3721 118.062 30.9697C117.692 31.5674 117.153 32.0273 116.444 32.3496C115.741 32.6719 114.892 32.833 113.896 32.833ZM122.808 24V37.5H120.479V24H122.808ZM130.261 35.4785V31.0928C130.261 30.7705 130.205 30.4922 130.094 30.2578C129.982 30.0234 129.812 29.8418 129.584 29.7129C129.355 29.584 129.065 29.5195 128.714 29.5195C128.403 29.5195 128.131 29.5723 127.896 29.6777C127.668 29.7832 127.492 29.9326 127.369 30.126C127.246 30.3135 127.185 30.5303 127.185 30.7764H124.855C124.855 30.3838 124.949 30.0117 125.137 29.6602C125.324 29.3027 125.591 28.9863 125.937 28.7109C126.288 28.4297 126.707 28.21 127.193 28.0518C127.686 27.8936 128.236 27.8145 128.846 27.8145C129.566 27.8145 130.208 27.9375 130.771 28.1836C131.339 28.4238 131.784 28.7871 132.106 29.2734C132.435 29.7598 132.599 30.3721 132.599 31.1104V35.2588C132.599 35.7334 132.628 36.1406 132.687 36.4805C132.751 36.8145 132.845 37.1045 132.968 37.3506V37.5H130.604C130.492 37.2598 130.407 36.9551 130.349 36.5859C130.29 36.2109 130.261 35.8418 130.261 35.4785ZM130.586 31.708L130.604 33.0879H129.136C128.772 33.0879 128.453 33.126 128.178 33.2021C127.902 33.2725 127.677 33.3779 127.501 33.5186C127.325 33.6533 127.193 33.8174 127.105 34.0107C127.018 34.1982 126.974 34.4121 126.974 34.6523C126.974 34.8867 127.026 35.0977 127.132 35.2852C127.243 35.4727 127.401 35.6221 127.606 35.7334C127.817 35.8389 128.063 35.8916 128.345 35.8916C128.755 35.8916 129.112 35.8096 129.417 35.6455C129.722 35.4756 129.959 35.2705 130.129 35.0303C130.299 34.79 130.39 34.5615 130.401 34.3447L131.069 35.3467C130.987 35.5869 130.864 35.8418 130.7 36.1113C130.536 36.3809 130.325 36.6328 130.067 36.8672C129.81 37.1016 129.499 37.2949 129.136 37.4473C128.772 37.5996 128.351 37.6758 127.87 37.6758C127.255 37.6758 126.704 37.5527 126.218 37.3066C125.731 37.0605 125.348 36.7236 125.066 36.2959C124.785 35.8682 124.645 35.3818 124.645 34.8369C124.645 34.333 124.738 33.8877 124.926 33.501C125.113 33.1143 125.392 32.7891 125.761 32.5254C126.13 32.2559 126.587 32.0537 127.132 31.9189C127.683 31.7783 128.312 31.708 129.021 31.708H130.586ZM137.336 36.4453L139.885 27.9902H142.372L138.558 38.9414C138.47 39.1758 138.355 39.4307 138.215 39.7061C138.08 39.9814 137.898 40.2422 137.67 40.4883C137.441 40.7402 137.154 40.9453 136.809 41.1035C136.469 41.2617 136.056 41.3408 135.569 41.3408C135.358 41.3408 135.171 41.3262 135.007 41.2969C134.843 41.2676 134.67 41.2295 134.488 41.1826V39.4424C134.547 39.4482 134.614 39.4512 134.69 39.4512C134.772 39.457 134.843 39.46 134.901 39.46C135.241 39.46 135.522 39.4189 135.745 39.3369C135.968 39.2607 136.146 39.1348 136.281 38.959C136.422 38.7891 136.539 38.5664 136.633 38.291L137.336 36.4453ZM136.079 27.9902L138.232 34.9951L138.61 37.4473L137.011 37.7373L133.574 27.9902H136.079Z" fill="white"/>
</svg>
