<svg width="159" height="50" viewBox="0 0 159 50" fill="none" xmlns="http://www.w3.org/2000/svg">
<rect width="150" height="50" rx="4" fill="black"/>
<path fill-rule="evenodd" clip-rule="evenodd" d="M28.4192 13.4279C29.7058 11.9914 30.5731 9.99068 30.3357 8C28.4817 8.068 26.2386 9.14096 24.9092 10.5758C23.7154 11.8491 22.6732 13.8836 22.9534 15.8352C25.0216 15.9831 27.1326 14.8661 28.4192 13.4279ZM33.057 26.0627C33.1088 31.2085 37.9465 32.9203 38 32.9424C37.9607 33.0631 37.2273 35.3815 35.4518 37.7785C33.9154 39.8491 32.3218 41.9113 29.8111 41.9555C27.345 41.998 26.5509 40.6058 23.7296 40.6058C20.9102 40.6058 20.0287 41.9111 17.6946 41.9978C15.2713 42.0811 13.4244 39.7576 11.8772 37.6938C8.71159 33.4727 6.29364 25.7653 9.54137 20.5633C11.1545 17.9811 14.0364 16.3433 17.1664 16.3025C19.5451 16.26 21.7917 17.7801 23.2461 17.7801C24.7004 17.7801 27.4306 15.9526 30.3 16.2212C31.501 16.2671 34.8736 16.6681 37.0382 19.5938C36.8633 19.6941 33.0142 21.7617 33.057 26.0627Z" fill="white"/>
<path d="M44.7881 18H43.2695L43.2793 17.0283H44.7881C45.2275 17.0283 45.5954 16.9323 45.8916 16.7402C46.1911 16.5482 46.4157 16.2731 46.5654 15.915C46.7184 15.557 46.7949 15.1305 46.7949 14.6357V14.25C46.7949 13.8659 46.751 13.5257 46.6631 13.2295C46.5785 12.9333 46.4515 12.6842 46.2822 12.4824C46.1162 12.2806 45.9111 12.1276 45.667 12.0234C45.4261 11.9193 45.1478 11.8672 44.832 11.8672H43.2402V10.8906H44.832C45.304 10.8906 45.7354 10.9704 46.126 11.1299C46.5166 11.2861 46.8535 11.5124 47.1367 11.8086C47.4232 12.1048 47.6429 12.4596 47.7959 12.873C47.9489 13.2865 48.0254 13.7487 48.0254 14.2598V14.6357C48.0254 15.1468 47.9489 15.609 47.7959 16.0225C47.6429 16.4359 47.4232 16.7907 47.1367 17.0869C46.8503 17.3799 46.5085 17.6061 46.1113 17.7656C45.7174 17.9219 45.2764 18 44.7881 18ZM43.9482 10.8906V18H42.7227V10.8906H43.9482ZM48.9141 15.417V15.3047C48.9141 14.9238 48.9694 14.5706 49.0801 14.2451C49.1908 13.9163 49.3503 13.6315 49.5586 13.3906C49.7702 13.1465 50.0273 12.9577 50.3301 12.8242C50.6361 12.6875 50.9811 12.6191 51.3652 12.6191C51.7526 12.6191 52.0977 12.6875 52.4004 12.8242C52.7064 12.9577 52.9652 13.1465 53.1768 13.3906C53.3883 13.6315 53.5495 13.9163 53.6602 14.2451C53.7708 14.5706 53.8262 14.9238 53.8262 15.3047V15.417C53.8262 15.7979 53.7708 16.151 53.6602 16.4766C53.5495 16.8021 53.3883 17.0869 53.1768 17.3311C52.9652 17.5719 52.708 17.7607 52.4053 17.8975C52.1025 18.0309 51.7591 18.0977 51.375 18.0977C50.9876 18.0977 50.641 18.0309 50.335 17.8975C50.0322 17.7607 49.7751 17.5719 49.5635 17.3311C49.3519 17.0869 49.1908 16.8021 49.0801 16.4766C48.9694 16.151 48.9141 15.7979 48.9141 15.417ZM50.0908 15.3047V15.417C50.0908 15.6546 50.1152 15.8792 50.1641 16.0908C50.2129 16.3024 50.2894 16.488 50.3936 16.6475C50.4977 16.807 50.6312 16.9323 50.7939 17.0234C50.9567 17.1146 51.1504 17.1602 51.375 17.1602C51.5931 17.1602 51.7819 17.1146 51.9414 17.0234C52.1042 16.9323 52.2376 16.807 52.3418 16.6475C52.446 16.488 52.5225 16.3024 52.5713 16.0908C52.6234 15.8792 52.6494 15.6546 52.6494 15.417V15.3047C52.6494 15.0703 52.6234 14.849 52.5713 14.6406C52.5225 14.429 52.4443 14.2419 52.3369 14.0791C52.2327 13.9163 52.0993 13.7894 51.9365 13.6982C51.777 13.6038 51.5866 13.5566 51.3652 13.5566C51.1439 13.5566 50.9518 13.6038 50.7891 13.6982C50.6296 13.7894 50.4977 13.9163 50.3936 14.0791C50.2894 14.2419 50.2129 14.429 50.1641 14.6406C50.1152 14.849 50.0908 15.0703 50.0908 15.3047ZM56.248 16.8281L57.4688 12.7168H58.2207L58.0156 13.9473L56.7852 18H56.1113L56.248 16.8281ZM55.5303 12.7168L56.4824 16.8477L56.5605 18H55.8086L54.3779 12.7168H55.5303ZM59.3633 16.7988L60.2861 12.7168H61.4336L60.0078 18H59.2559L59.3633 16.7988ZM58.3477 12.7168L59.5537 16.7793L59.7051 18H59.0312L57.7861 13.9424L57.5811 12.7168H58.3477ZM63.4014 13.8447V18H62.2246V12.7168H63.333L63.4014 13.8447ZM63.1914 15.1631L62.8105 15.1582C62.8138 14.7839 62.8659 14.4404 62.9668 14.1279C63.071 13.8154 63.2142 13.5469 63.3965 13.3223C63.582 13.0977 63.8034 12.9251 64.0605 12.8047C64.3177 12.681 64.6042 12.6191 64.9199 12.6191C65.1738 12.6191 65.4033 12.6549 65.6084 12.7266C65.8167 12.7949 65.9941 12.9072 66.1406 13.0635C66.2904 13.2197 66.4043 13.4232 66.4824 13.6738C66.5605 13.9212 66.5996 14.2256 66.5996 14.5869V18H65.418V14.582C65.418 14.3281 65.3805 14.1279 65.3057 13.9814C65.234 13.8317 65.1283 13.7259 64.9883 13.6641C64.8516 13.599 64.6807 13.5664 64.4756 13.5664C64.2738 13.5664 64.0931 13.6087 63.9336 13.6934C63.7741 13.778 63.639 13.8936 63.5283 14.04C63.4209 14.1865 63.3379 14.3558 63.2793 14.5479C63.2207 14.7399 63.1914 14.945 63.1914 15.1631ZM69.0605 10.5V18H67.8789V10.5H69.0605ZM70.125 15.417V15.3047C70.125 14.9238 70.1803 14.5706 70.291 14.2451C70.4017 13.9163 70.5612 13.6315 70.7695 13.3906C70.9811 13.1465 71.2383 12.9577 71.541 12.8242C71.847 12.6875 72.1921 12.6191 72.5762 12.6191C72.9635 12.6191 73.3086 12.6875 73.6113 12.8242C73.9173 12.9577 74.1761 13.1465 74.3877 13.3906C74.5993 13.6315 74.7604 13.9163 74.8711 14.2451C74.9818 14.5706 75.0371 14.9238 75.0371 15.3047V15.417C75.0371 15.7979 74.9818 16.151 74.8711 16.4766C74.7604 16.8021 74.5993 17.0869 74.3877 17.3311C74.1761 17.5719 73.9189 17.7607 73.6162 17.8975C73.3135 18.0309 72.9701 18.0977 72.5859 18.0977C72.1986 18.0977 71.8519 18.0309 71.5459 17.8975C71.2432 17.7607 70.986 17.5719 70.7744 17.3311C70.5628 17.0869 70.4017 16.8021 70.291 16.4766C70.1803 16.151 70.125 15.7979 70.125 15.417ZM71.3018 15.3047V15.417C71.3018 15.6546 71.3262 15.8792 71.375 16.0908C71.4238 16.3024 71.5003 16.488 71.6045 16.6475C71.7087 16.807 71.8421 16.9323 72.0049 17.0234C72.1676 17.1146 72.3613 17.1602 72.5859 17.1602C72.804 17.1602 72.9928 17.1146 73.1523 17.0234C73.3151 16.9323 73.4486 16.807 73.5527 16.6475C73.6569 16.488 73.7334 16.3024 73.7822 16.0908C73.8343 15.8792 73.8604 15.6546 73.8604 15.417V15.3047C73.8604 15.0703 73.8343 14.849 73.7822 14.6406C73.7334 14.429 73.6553 14.2419 73.5479 14.0791C73.4437 13.9163 73.3102 13.7894 73.1475 13.6982C72.988 13.6038 72.7975 13.5566 72.5762 13.5566C72.3548 13.5566 72.1628 13.6038 72 13.6982C71.8405 13.7894 71.7087 13.9163 71.6045 14.0791C71.5003 14.2419 71.4238 14.429 71.375 14.6406C71.3262 14.849 71.3018 15.0703 71.3018 15.3047ZM79.002 16.9404V14.4209C79.002 14.2321 78.9678 14.0693 78.8994 13.9326C78.8311 13.7959 78.7269 13.6901 78.5869 13.6152C78.4502 13.5404 78.2777 13.5029 78.0693 13.5029C77.8773 13.5029 77.7113 13.5355 77.5713 13.6006C77.4313 13.6657 77.3223 13.7536 77.2441 13.8643C77.166 13.9749 77.127 14.1003 77.127 14.2402H75.9551C75.9551 14.0319 76.0055 13.8301 76.1064 13.6348C76.2074 13.4395 76.3538 13.2653 76.5459 13.1123C76.738 12.9593 76.9674 12.8389 77.2344 12.751C77.5013 12.6631 77.8008 12.6191 78.1328 12.6191C78.5299 12.6191 78.8815 12.6859 79.1875 12.8193C79.4967 12.9528 79.7393 13.1546 79.915 13.4248C80.0941 13.6917 80.1836 14.027 80.1836 14.4307V16.7793C80.1836 17.0202 80.1999 17.2367 80.2324 17.4287C80.2682 17.6175 80.3187 17.7819 80.3838 17.9219V18H79.1777C79.1224 17.873 79.0785 17.7119 79.0459 17.5166C79.0166 17.318 79.002 17.126 79.002 16.9404ZM79.1729 14.7871L79.1826 15.5146H78.3379C78.1198 15.5146 77.9277 15.5358 77.7617 15.5781C77.5957 15.6172 77.4574 15.6758 77.3467 15.7539C77.236 15.832 77.153 15.9264 77.0977 16.0371C77.0423 16.1478 77.0146 16.2731 77.0146 16.4131C77.0146 16.5531 77.0472 16.6816 77.1123 16.7988C77.1774 16.9128 77.2718 17.0023 77.3955 17.0674C77.5225 17.1325 77.6755 17.165 77.8545 17.165C78.0954 17.165 78.3053 17.1162 78.4844 17.0186C78.6667 16.9176 78.8099 16.7956 78.9141 16.6523C79.0182 16.5059 79.0736 16.3675 79.0801 16.2373L79.4609 16.7598C79.4219 16.8932 79.3551 17.0365 79.2607 17.1895C79.1663 17.3424 79.0426 17.4889 78.8896 17.6289C78.7399 17.7656 78.5592 17.8779 78.3477 17.9658C78.1393 18.0537 77.8984 18.0977 77.625 18.0977C77.2799 18.0977 76.9723 18.0293 76.7021 17.8926C76.432 17.7526 76.2204 17.5654 76.0674 17.3311C75.9144 17.0934 75.8379 16.8249 75.8379 16.5254C75.8379 16.2454 75.89 15.998 75.9941 15.7832C76.1016 15.5651 76.2578 15.3828 76.4629 15.2363C76.6712 15.0898 76.9251 14.9792 77.2246 14.9043C77.5241 14.8262 77.8659 14.7871 78.25 14.7871H79.1729ZM84.6367 16.9062V10.5H85.8184V18H84.749L84.6367 16.9062ZM81.1992 15.417V15.3145C81.1992 14.9141 81.2464 14.5495 81.3408 14.2207C81.4352 13.8887 81.5719 13.6038 81.751 13.3662C81.93 13.1253 82.1481 12.9414 82.4053 12.8145C82.6624 12.6842 82.9521 12.6191 83.2744 12.6191C83.5934 12.6191 83.8734 12.681 84.1143 12.8047C84.3551 12.9284 84.5602 13.1058 84.7295 13.3369C84.8988 13.5648 85.0339 13.8382 85.1348 14.1572C85.2357 14.473 85.3073 14.8245 85.3496 15.2119V15.5391C85.3073 15.9167 85.2357 16.2617 85.1348 16.5742C85.0339 16.8867 84.8988 17.1569 84.7295 17.3848C84.5602 17.6126 84.3535 17.7884 84.1094 17.9121C83.8685 18.0358 83.5869 18.0977 83.2646 18.0977C82.9456 18.0977 82.6576 18.0309 82.4004 17.8975C82.1465 17.764 81.93 17.5768 81.751 17.3359C81.5719 17.0951 81.4352 16.8118 81.3408 16.4863C81.2464 16.1576 81.1992 15.8011 81.1992 15.417ZM82.376 15.3145V15.417C82.376 15.6579 82.3971 15.8825 82.4395 16.0908C82.485 16.2992 82.555 16.4831 82.6494 16.6426C82.7438 16.7988 82.8659 16.9225 83.0156 17.0137C83.1686 17.1016 83.3509 17.1455 83.5625 17.1455C83.8294 17.1455 84.0492 17.0869 84.2217 16.9697C84.3942 16.8525 84.5293 16.6947 84.627 16.4961C84.7279 16.2943 84.7962 16.0697 84.832 15.8223V14.9385C84.8125 14.7464 84.7718 14.5674 84.71 14.4014C84.6514 14.2354 84.5716 14.0905 84.4707 13.9668C84.3698 13.8398 84.2445 13.7422 84.0947 13.6738C83.9482 13.6022 83.7741 13.5664 83.5723 13.5664C83.3574 13.5664 83.1751 13.612 83.0254 13.7031C82.8757 13.7943 82.752 13.9196 82.6543 14.0791C82.5599 14.2386 82.4899 14.4242 82.4443 14.6357C82.3988 14.8473 82.376 15.0736 82.376 15.3145ZM89.3145 15.417V15.3047C89.3145 14.9238 89.3698 14.5706 89.4805 14.2451C89.5911 13.9163 89.7507 13.6315 89.959 13.3906C90.1706 13.1465 90.4277 12.9577 90.7305 12.8242C91.0365 12.6875 91.3815 12.6191 91.7656 12.6191C92.153 12.6191 92.498 12.6875 92.8008 12.8242C93.1068 12.9577 93.3656 13.1465 93.5771 13.3906C93.7887 13.6315 93.9499 13.9163 94.0605 14.2451C94.1712 14.5706 94.2266 14.9238 94.2266 15.3047V15.417C94.2266 15.7979 94.1712 16.151 94.0605 16.4766C93.9499 16.8021 93.7887 17.0869 93.5771 17.3311C93.3656 17.5719 93.1084 17.7607 92.8057 17.8975C92.5029 18.0309 92.1595 18.0977 91.7754 18.0977C91.388 18.0977 91.0413 18.0309 90.7354 17.8975C90.4326 17.7607 90.1755 17.5719 89.9639 17.3311C89.7523 17.0869 89.5911 16.8021 89.4805 16.4766C89.3698 16.151 89.3145 15.7979 89.3145 15.417ZM90.4912 15.3047V15.417C90.4912 15.6546 90.5156 15.8792 90.5645 16.0908C90.6133 16.3024 90.6898 16.488 90.7939 16.6475C90.8981 16.807 91.0316 16.9323 91.1943 17.0234C91.3571 17.1146 91.5508 17.1602 91.7754 17.1602C91.9935 17.1602 92.1823 17.1146 92.3418 17.0234C92.5046 16.9323 92.638 16.807 92.7422 16.6475C92.8464 16.488 92.9229 16.3024 92.9717 16.0908C93.0238 15.8792 93.0498 15.6546 93.0498 15.417V15.3047C93.0498 15.0703 93.0238 14.849 92.9717 14.6406C92.9229 14.429 92.8447 14.2419 92.7373 14.0791C92.6331 13.9163 92.4997 13.7894 92.3369 13.6982C92.1774 13.6038 91.987 13.5566 91.7656 13.5566C91.5443 13.5566 91.3522 13.6038 91.1895 13.6982C91.0299 13.7894 90.8981 13.9163 90.7939 14.0791C90.6898 14.2419 90.6133 14.429 90.5645 14.6406C90.5156 14.849 90.4912 15.0703 90.4912 15.3047ZM96.3799 13.8447V18H95.2031V12.7168H96.3115L96.3799 13.8447ZM96.1699 15.1631L95.7891 15.1582C95.7923 14.7839 95.8444 14.4404 95.9453 14.1279C96.0495 13.8154 96.1927 13.5469 96.375 13.3223C96.5605 13.0977 96.7819 12.9251 97.0391 12.8047C97.2962 12.681 97.5827 12.6191 97.8984 12.6191C98.1523 12.6191 98.3818 12.6549 98.5869 12.7266C98.7952 12.7949 98.9727 12.9072 99.1191 13.0635C99.2689 13.2197 99.3828 13.4232 99.4609 13.6738C99.5391 13.9212 99.5781 14.2256 99.5781 14.5869V18H98.3965V14.582C98.3965 14.3281 98.359 14.1279 98.2842 13.9814C98.2126 13.8317 98.1068 13.7259 97.9668 13.6641C97.8301 13.599 97.6592 13.5664 97.4541 13.5664C97.2523 13.5664 97.0716 13.6087 96.9121 13.6934C96.7526 13.778 96.6175 13.8936 96.5068 14.04C96.3994 14.1865 96.3164 14.3558 96.2578 14.5479C96.1992 14.7399 96.1699 14.945 96.1699 15.1631ZM105.691 12.7168V13.5762H102.713V12.7168H105.691ZM103.572 11.4229H104.749V16.54C104.749 16.7028 104.772 16.8281 104.817 16.916C104.866 17.0007 104.933 17.0576 105.018 17.0869C105.102 17.1162 105.201 17.1309 105.315 17.1309C105.397 17.1309 105.475 17.126 105.55 17.1162C105.625 17.1064 105.685 17.0967 105.73 17.0869L105.735 17.9854C105.638 18.0146 105.524 18.0407 105.394 18.0635C105.267 18.0863 105.12 18.0977 104.954 18.0977C104.684 18.0977 104.445 18.0505 104.236 17.9561C104.028 17.8584 103.865 17.7005 103.748 17.4824C103.631 17.2643 103.572 16.9746 103.572 16.6133V11.4229ZM107.762 10.5V18H106.59V10.5H107.762ZM107.557 15.1631L107.176 15.1582C107.179 14.7936 107.229 14.4567 107.327 14.1475C107.428 13.8382 107.568 13.5697 107.747 13.3418C107.929 13.1107 108.147 12.9333 108.401 12.8096C108.655 12.6826 108.937 12.6191 109.246 12.6191C109.507 12.6191 109.741 12.6549 109.949 12.7266C110.161 12.7982 110.343 12.9137 110.496 13.0732C110.649 13.2295 110.765 13.4346 110.843 13.6885C110.924 13.9391 110.965 14.2451 110.965 14.6064V18H109.783V14.5967C109.783 14.3428 109.746 14.141 109.671 13.9912C109.599 13.8415 109.493 13.734 109.354 13.6689C109.214 13.6006 109.043 13.5664 108.841 13.5664C108.629 13.5664 108.442 13.6087 108.279 13.6934C108.12 13.778 107.986 13.8936 107.879 14.04C107.771 14.1865 107.69 14.3558 107.635 14.5479C107.583 14.7399 107.557 14.945 107.557 15.1631ZM114.485 18.0977C114.095 18.0977 113.742 18.0342 113.426 17.9072C113.113 17.777 112.846 17.5964 112.625 17.3652C112.407 17.1341 112.239 16.8623 112.122 16.5498C112.005 16.2373 111.946 15.9004 111.946 15.5391V15.3438C111.946 14.9303 112.007 14.556 112.127 14.2207C112.247 13.8854 112.415 13.599 112.63 13.3613C112.845 13.1204 113.099 12.9365 113.392 12.8096C113.685 12.6826 114.002 12.6191 114.344 12.6191C114.721 12.6191 115.052 12.6826 115.335 12.8096C115.618 12.9365 115.853 13.1156 116.038 13.3467C116.227 13.5745 116.367 13.8464 116.458 14.1621C116.552 14.4779 116.6 14.8262 116.6 15.207V15.71H112.518V14.8652H115.438V14.7725C115.431 14.5609 115.389 14.3623 115.311 14.1768C115.236 13.9912 115.12 13.8415 114.964 13.7275C114.808 13.6136 114.599 13.5566 114.339 13.5566C114.144 13.5566 113.969 13.599 113.816 13.6836C113.667 13.765 113.541 13.8838 113.44 14.04C113.34 14.1963 113.261 14.3851 113.206 14.6064C113.154 14.8245 113.128 15.0703 113.128 15.3438V15.5391C113.128 15.7702 113.159 15.985 113.221 16.1836C113.286 16.3789 113.38 16.5498 113.504 16.6963C113.628 16.8428 113.777 16.9583 113.953 17.043C114.129 17.1243 114.329 17.165 114.554 17.165C114.837 17.165 115.089 17.1081 115.311 16.9941C115.532 16.8802 115.724 16.7191 115.887 16.5107L116.507 17.1113C116.393 17.2773 116.245 17.4368 116.062 17.5898C115.88 17.7396 115.657 17.8617 115.394 17.9561C115.133 18.0505 114.83 18.0977 114.485 18.0977Z" fill="white"/>
<path d="M48.3105 27.1455L44.6631 38H42.1055L46.8867 25.2031H48.5215L48.3105 27.1455ZM51.3604 38L47.6953 27.1455L47.4756 25.2031H49.1191L53.9268 38H51.3604ZM51.1934 33.2451V35.1523H44.3291V33.2451H51.1934ZM57.1611 30.3184V41.6562H54.832V28.4902H56.9854L57.1611 30.3184ZM63.2695 33.1484V33.333C63.2695 34.0244 63.1875 34.666 63.0234 35.2578C62.8652 35.8438 62.6309 36.3564 62.3203 36.7959C62.0098 37.2295 61.623 37.5693 61.1602 37.8154C60.7031 38.0557 60.1758 38.1758 59.5781 38.1758C58.9922 38.1758 58.4824 38.0645 58.0488 37.8418C57.6152 37.6133 57.249 37.291 56.9502 36.875C56.6514 36.459 56.4111 35.9756 56.2295 35.4248C56.0537 34.8682 55.9219 34.2617 55.834 33.6055V33.0166C55.9219 32.3193 56.0537 31.6865 56.2295 31.1182C56.4111 30.5439 56.6514 30.0488 56.9502 29.6328C57.249 29.2109 57.6123 28.8857 58.04 28.6572C58.4736 28.4287 58.9805 28.3145 59.5605 28.3145C60.1641 28.3145 60.6943 28.4287 61.1514 28.6572C61.6143 28.8857 62.0039 29.2139 62.3203 29.6416C62.6367 30.0693 62.874 30.5791 63.0322 31.1709C63.1904 31.7627 63.2695 32.4219 63.2695 33.1484ZM60.9404 33.333V33.1484C60.9404 32.7266 60.9023 32.3369 60.8262 31.9795C60.75 31.6162 60.6328 31.2998 60.4746 31.0303C60.3164 30.7549 60.1113 30.541 59.8594 30.3887C59.6074 30.2363 59.3027 30.1602 58.9453 30.1602C58.5879 30.1602 58.2803 30.2188 58.0225 30.3359C57.7646 30.4531 57.5537 30.6201 57.3896 30.8369C57.2256 31.0537 57.0967 31.3115 57.0029 31.6104C56.915 31.9033 56.8564 32.2285 56.8271 32.5859V34.0449C56.8799 34.4785 56.9824 34.8682 57.1348 35.2139C57.2871 35.5596 57.5098 35.835 57.8027 36.04C58.1016 36.2451 58.4883 36.3477 58.9629 36.3477C59.3203 36.3477 59.625 36.2686 59.877 36.1104C60.1289 35.9521 60.334 35.7354 60.4922 35.46C60.6504 35.1787 60.7646 34.8564 60.835 34.4932C60.9053 34.1299 60.9404 33.7432 60.9404 33.333ZM67.2861 30.3184V41.6562H64.957V28.4902H67.1104L67.2861 30.3184ZM73.3945 33.1484V33.333C73.3945 34.0244 73.3125 34.666 73.1484 35.2578C72.9902 35.8438 72.7559 36.3564 72.4453 36.7959C72.1348 37.2295 71.748 37.5693 71.2852 37.8154C70.8281 38.0557 70.3008 38.1758 69.7031 38.1758C69.1172 38.1758 68.6074 38.0645 68.1738 37.8418C67.7402 37.6133 67.374 37.291 67.0752 36.875C66.7764 36.459 66.5361 35.9756 66.3545 35.4248C66.1787 34.8682 66.0469 34.2617 65.959 33.6055V33.0166C66.0469 32.3193 66.1787 31.6865 66.3545 31.1182C66.5361 30.5439 66.7764 30.0488 67.0752 29.6328C67.374 29.2109 67.7373 28.8857 68.165 28.6572C68.5986 28.4287 69.1055 28.3145 69.6855 28.3145C70.2891 28.3145 70.8193 28.4287 71.2764 28.6572C71.7393 28.8857 72.1289 29.2139 72.4453 29.6416C72.7617 30.0693 72.999 30.5791 73.1572 31.1709C73.3154 31.7627 73.3945 32.4219 73.3945 33.1484ZM71.0654 33.333V33.1484C71.0654 32.7266 71.0273 32.3369 70.9512 31.9795C70.875 31.6162 70.7578 31.2998 70.5996 31.0303C70.4414 30.7549 70.2363 30.541 69.9844 30.3887C69.7324 30.2363 69.4277 30.1602 69.0703 30.1602C68.7129 30.1602 68.4053 30.2188 68.1475 30.3359C67.8896 30.4531 67.6787 30.6201 67.5146 30.8369C67.3506 31.0537 67.2217 31.3115 67.1279 31.6104C67.04 31.9033 66.9814 32.2285 66.9521 32.5859V34.0449C67.0049 34.4785 67.1074 34.8682 67.2598 35.2139C67.4121 35.5596 67.6348 35.835 67.9277 36.04C68.2266 36.2451 68.6133 36.3477 69.0879 36.3477C69.4453 36.3477 69.75 36.2686 70.002 36.1104C70.2539 35.9521 70.459 35.7354 70.6172 35.46C70.7754 35.1787 70.8896 34.8564 70.96 34.4932C71.0303 34.1299 71.0654 33.7432 71.0654 33.333ZM86.4463 34.6777C86.4463 34.4316 86.4082 34.2119 86.332 34.0186C86.2617 33.8193 86.1299 33.6406 85.9365 33.4824C85.749 33.3184 85.4824 33.1602 85.1367 33.0078C84.7969 32.8496 84.3574 32.6855 83.8184 32.5156C83.2207 32.3281 82.6641 32.1172 82.1484 31.8828C81.6328 31.6484 81.1787 31.376 80.7861 31.0654C80.3994 30.7549 80.0977 30.3975 79.8809 29.9932C79.6641 29.583 79.5557 29.1084 79.5557 28.5693C79.5557 28.042 79.667 27.5615 79.8896 27.1279C80.1182 26.6943 80.4404 26.3223 80.8564 26.0117C81.2725 25.6953 81.7617 25.4521 82.3242 25.2822C82.8926 25.1123 83.5195 25.0273 84.2051 25.0273C85.1543 25.0273 85.9746 25.2002 86.666 25.5459C87.3633 25.8916 87.9023 26.3604 88.2832 26.9521C88.6641 27.5439 88.8545 28.209 88.8545 28.9473H86.4463C86.4463 28.5488 86.3613 28.1973 86.1914 27.8926C86.0273 27.5879 85.7754 27.3477 85.4355 27.1719C85.1016 26.9961 84.6797 26.9082 84.1699 26.9082C83.6777 26.9082 83.2676 26.9814 82.9395 27.1279C82.6172 27.2744 82.374 27.4736 82.21 27.7256C82.0518 27.9775 81.9727 28.2588 81.9727 28.5693C81.9727 28.8037 82.0283 29.0146 82.1396 29.2021C82.251 29.3838 82.418 29.5566 82.6406 29.7207C82.8633 29.8789 83.1387 30.0283 83.4668 30.1689C83.8008 30.3037 84.1875 30.4385 84.627 30.5732C85.3301 30.7842 85.9453 31.0186 86.4727 31.2764C87.0059 31.5342 87.4482 31.8271 87.7998 32.1553C88.1572 32.4834 88.4238 32.8525 88.5996 33.2627C88.7812 33.6729 88.8721 34.1387 88.8721 34.6602C88.8721 35.2109 88.7637 35.7031 88.5469 36.1367C88.3301 36.5703 88.0195 36.9395 87.6152 37.2441C87.2109 37.5488 86.7246 37.7803 86.1562 37.9385C85.5938 38.0967 84.9639 38.1758 84.2666 38.1758C83.6455 38.1758 83.0303 38.0938 82.4209 37.9297C81.8174 37.7598 81.2695 37.5078 80.7773 37.1738C80.2852 36.834 79.8926 36.4062 79.5996 35.8906C79.3066 35.3691 79.1602 34.7598 79.1602 34.0625H81.5859C81.5859 34.4668 81.6504 34.8125 81.7793 35.0996C81.9141 35.3809 82.1016 35.6123 82.3418 35.7939C82.5879 35.9697 82.875 36.0986 83.2031 36.1807C83.5312 36.2627 83.8857 36.3037 84.2666 36.3037C84.7588 36.3037 85.1631 36.2363 85.4795 36.1016C85.8018 35.9609 86.042 35.7676 86.2002 35.5215C86.3643 35.2754 86.4463 34.9941 86.4463 34.6777ZM95.0596 28.4902V30.1602H89.6104V28.4902H95.0596ZM91.0693 26.1523H93.3984V35.2578C93.3984 35.5391 93.4365 35.7559 93.5127 35.9082C93.5889 36.0605 93.7031 36.1631 93.8555 36.2158C94.0078 36.2686 94.1895 36.2949 94.4004 36.2949C94.5527 36.2949 94.6934 36.2861 94.8223 36.2686C94.9512 36.251 95.0596 36.2334 95.1475 36.2158L95.1562 37.9561C94.9629 38.0205 94.7432 38.0732 94.4971 38.1143C94.2568 38.1553 93.9844 38.1758 93.6797 38.1758C93.1582 38.1758 92.7012 38.0879 92.3086 37.9121C91.916 37.7305 91.6113 37.4404 91.3945 37.042C91.1777 36.6377 91.0693 36.1045 91.0693 35.4424V26.1523ZM95.9648 33.3418V33.1572C95.9648 32.46 96.0645 31.8184 96.2637 31.2324C96.4629 30.6406 96.7529 30.1279 97.1338 29.6943C97.5146 29.2607 97.9805 28.9238 98.5312 28.6836C99.082 28.4375 99.709 28.3145 100.412 28.3145C101.127 28.3145 101.76 28.4375 102.311 28.6836C102.867 28.9238 103.336 29.2607 103.717 29.6943C104.098 30.1279 104.388 30.6406 104.587 31.2324C104.786 31.8184 104.886 32.46 104.886 33.1572V33.3418C104.886 34.0332 104.786 34.6748 104.587 35.2666C104.388 35.8525 104.098 36.3652 103.717 36.8047C103.336 37.2383 102.87 37.5752 102.319 37.8154C101.769 38.0557 101.139 38.1758 100.43 38.1758C99.7266 38.1758 99.0967 38.0557 98.54 37.8154C97.9834 37.5752 97.5146 37.2383 97.1338 36.8047C96.7529 36.3652 96.4629 35.8525 96.2637 35.2666C96.0645 34.6748 95.9648 34.0332 95.9648 33.3418ZM98.2852 33.1572V33.3418C98.2852 33.7578 98.3262 34.1475 98.4082 34.5107C98.4902 34.874 98.6162 35.1934 98.7861 35.4688C98.9561 35.7441 99.1758 35.9609 99.4453 36.1191C99.7207 36.2715 100.049 36.3477 100.43 36.3477C100.805 36.3477 101.127 36.2715 101.396 36.1191C101.666 35.9609 101.886 35.7441 102.056 35.4688C102.231 35.1934 102.36 34.874 102.442 34.5107C102.524 34.1475 102.565 33.7578 102.565 33.3418V33.1572C102.565 32.7471 102.524 32.3633 102.442 32.0059C102.36 31.6426 102.231 31.3232 102.056 31.0479C101.886 30.7666 101.663 30.5469 101.388 30.3887C101.118 30.2246 100.793 30.1426 100.412 30.1426C100.037 30.1426 99.7148 30.2246 99.4453 30.3887C99.1758 30.5469 98.9561 30.7666 98.7861 31.0479C98.6162 31.3232 98.4902 31.6426 98.4082 32.0059C98.3262 32.3633 98.2852 32.7471 98.2852 33.1572ZM108.894 30.4326V38H106.573V28.4902H108.771L108.894 30.4326ZM111.785 28.4287L111.75 30.5908C111.621 30.5674 111.475 30.5498 111.311 30.5381C111.152 30.5264 111.003 30.5205 110.862 30.5205C110.505 30.5205 110.191 30.5703 109.922 30.6699C109.652 30.7637 109.427 30.9014 109.245 31.083C109.069 31.2646 108.935 31.4873 108.841 31.751C108.747 32.0088 108.694 32.3018 108.683 32.6299L108.182 32.5684C108.182 31.9648 108.243 31.4053 108.366 30.8896C108.489 30.374 108.668 29.9229 108.902 29.5361C109.137 29.1494 109.43 28.8506 109.781 28.6396C110.139 28.4229 110.549 28.3145 111.012 28.3145C111.141 28.3145 111.278 28.3262 111.425 28.3496C111.577 28.3672 111.697 28.3936 111.785 28.4287ZM117.155 38.1758C116.435 38.1758 115.787 38.0586 115.213 37.8242C114.639 37.5898 114.149 37.2646 113.745 36.8486C113.347 36.4268 113.039 35.9375 112.822 35.3809C112.611 34.8184 112.506 34.2148 112.506 33.5703V33.2188C112.506 32.4863 112.611 31.8213 112.822 31.2236C113.033 30.6201 113.332 30.1016 113.719 29.668C114.105 29.2344 114.568 28.9004 115.107 28.666C115.646 28.4316 116.241 28.3145 116.892 28.3145C117.565 28.3145 118.16 28.4287 118.676 28.6572C119.191 28.8799 119.622 29.1963 119.968 29.6064C120.313 30.0166 120.574 30.5088 120.75 31.083C120.926 31.6514 121.014 32.2812 121.014 32.9727V33.9482H113.561V32.3486H118.729V32.1729C118.717 31.8037 118.646 31.4668 118.518 31.1621C118.389 30.8516 118.189 30.6055 117.92 30.4238C117.65 30.2363 117.302 30.1426 116.874 30.1426C116.528 30.1426 116.227 30.2188 115.969 30.3711C115.717 30.5176 115.506 30.7285 115.336 31.0039C115.172 31.2734 115.049 31.5957 114.967 31.9707C114.885 32.3457 114.844 32.7617 114.844 33.2188V33.5703C114.844 33.9688 114.896 34.3379 115.002 34.6777C115.113 35.0176 115.274 35.3135 115.485 35.5654C115.702 35.8115 115.96 36.0049 116.259 36.1455C116.563 36.2803 116.909 36.3477 117.296 36.3477C117.782 36.3477 118.222 36.2539 118.614 36.0664C119.013 35.873 119.358 35.5889 119.651 35.2139L120.82 36.4268C120.621 36.7197 120.352 37.001 120.012 37.2705C119.678 37.54 119.273 37.7598 118.799 37.9297C118.324 38.0938 117.776 38.1758 117.155 38.1758Z" fill="white"/>
</svg>
